Coordinates
version=1
nRows=17
nColumns=36
inDegrees=yes

Units are S.I. units (second, meters, Newtons, ...)
If the header above contains a line with 'inDegrees', this indicates whether rotational values are in degrees (yes) or radians (no).

endheader
time	pelvis_tilt	pelvis_list	pelvis_rotation	pelvis_tx	pelvis_ty	pelvis_tz	hip_flexion_r	hip_adduction_r	hip_rotation_r	knee_angle_r	knee_angle_r_beta	ankle_angle_r	subtalar_angle_r	mtp_angle_r	hip_flexion_l	hip_adduction_l	hip_rotation_l	knee_angle_l	knee_angle_l_beta	ankle_angle_l	subtalar_angle_l	mtp_angle_l	lumbar_extension	lumbar_bending	lumbar_rotation	arm_flex_r	arm_add_r	arm_rot_r	elbow_flex_r	pro_sup_r	arm_flex_l	arm_add_l	arm_rot_l	elbow_flex_l	pro_sup_l
      6.59000000	    -34.59119427	     -5.21577106	      0.36027822	     -0.30312016	      0.65812704	     -0.56960713	     94.27306311	     -6.85083316	     -8.70825620	     91.10023628	      1.58999907	     35.03081330	     -1.63849320	     -7.49999987	     97.04649422	    -35.20143526	     10.41517962	     73.88248405	      1.28949261	     22.73265195	     13.06543151	     -7.49999987	    -33.57744339	     -2.21741702	      4.91963280	    113.23632150	    -15.84996340	     38.48578309	    118.96840043	    107.84474722	    119.38107057	    -20.61824619	     41.73427464	    116.49749638	    108.24728563
      6.60000000	    -34.38937288	     -5.25634231	      0.41609878	     -0.30211448	      0.66196197	     -0.57118481	     93.57641822	     -6.85088481	     -8.60481111	     90.47731080	      1.57912697	     34.86083013	     -1.60427020	     -7.49999987	     96.25828152	    -35.02339503	     10.16179682	     73.41735791	      1.28137462	     22.67238816	     12.98514008	     -7.49999987	    -33.32985737	     -2.05692348	      4.93499745	    112.64941525	    -15.98998143	     38.50988407	    119.19902717	    107.90080233	    118.79312543	    -20.77649920	     41.73116518	    116.60644009	    108.28116142
      6.61000000	    -34.24886891	     -5.15248454	      0.44389569	     -0.30101322	      0.66588235	     -0.57254442	     93.00196501	     -6.86219059	     -8.38194561	     89.92615320	      1.56950746	     34.46974821	     -1.64175978	     -7.49999987	     95.35093687	    -34.90266638	      9.60602425	     72.84890057	      1.27145317	     22.49763996	     12.53982575	     -7.49999987	    -32.96691413	     -2.07913970	      4.93824473	    111.71281582	    -16.07165583	     38.23068112	    119.56576892	    108.08573340	    117.91883805	    -20.76016725	     41.30154936	    116.79089383	    108.39376055
      6.62000000	    -34.10160005	     -5.25215010	      0.46463003	     -0.30004575	      0.66988322	     -0.57404305	     92.30259730	     -6.84903819	     -8.37475709	     89.19623001	      1.55676789	     34.33368899	     -1.56249163	     -7.49999987	     94.69394515	    -34.78220697	      9.38159501	     72.40077381	      1.26363188	     22.42389848	     12.52690080	     -7.49999987	    -32.65019266	     -1.91618285	      4.96310846	    111.05128314	    -16.30944269	     38.33398399	    119.75266181	    108.12893946	    117.46595272	    -20.97919795	     41.41236952	    116.86852075	    108.43383647
      6.63000000	    -33.96727970	     -5.17930212	      0.47942800	     -0.29878138	      0.67410367	     -0.57564534	     91.65021131	     -6.90219190	     -8.26193729	     88.54971518	      1.54548408	     34.02259361	     -1.54171477	     -7.49999987	     93.76756868	    -34.68611682	      8.80363397	     71.77598299	      1.25272723	     22.21053693	     12.21198285	     -7.49999987	    -32.18909608	     -1.96337032	      4.98799789	    109.76704988	    -16.60885740	     38.01224215	    120.29413003	    108.25421977	    116.41524269	    -20.77238710	     41.10991960	    117.04376667	    108.56724633
      6.64000000	    -33.76056485	     -5.11600957	      0.56530450	     -0.29760983	      0.67866953	     -0.57755551	     90.85937571	     -7.02081019	     -8.15438517	     87.79428246	      1.53229929	     33.82095762	     -1.52876776	     -7.49999987	     92.77049792	    -34.47712466	      8.24508323	     71.17552983	      1.24224734	     22.04501689	     11.98955758	     -7.49999987	    -31.87147035	     -1.88745045	      4.88699557	    108.75016569	    -16.92629112	     37.99066371	    120.60978809	    108.35123660	    115.49902867	    -20.80208971	     40.87850446	    117.23996974	    108.71390679
      6.65000000	    -33.58141300	     -5.16806122	      0.65068374	     -0.29664300	      0.68327848	     -0.57942540	     90.03884684	     -7.09667895	     -8.15522678	     86.92933408	      1.51720310	     33.68194647	     -1.46331400	     -7.49999987	     91.94576083	    -34.25520774	      7.88886827	     70.61017091	      1.23237997	     21.95463834	     11.98496965	     -7.49999987	    -31.54675464	     -1.68539463	      4.79472925	    107.85977568	    -17.26983771	     38.12303512	    120.79050557	    108.38501253	    114.82158617	    -21.09144190	     40.95587157	    117.39978264	    108.76500718
      6.66000000	    -33.52089629	     -4.98072772	      0.74183745	     -0.29548848	      0.68782317	     -0.58092270	     89.46680098	     -7.20628351	     -7.93074472	     86.19726464	      1.50442607	     33.29017597	     -1.56937993	     -7.49999987	     90.90540958	    -34.04057279	      7.11370325	     69.79698144	      1.21818713	     21.68177188	     11.49956113	     -7.49999987	    -30.94377864	     -1.75834709	      4.61285844	    106.25291320	    -17.35359552	     37.67655279	    121.18918888	    108.47100622	    113.50024480	    -21.18466186	     40.48269447	    117.72350233	    108.88524442
      6.67000000	    -33.21111834	     -5.01716413	      0.83861524	     -0.29433275	      0.69275539	     -0.58222007	     88.52485350	     -7.23098351	     -7.94023010	     85.37193801	      1.49002141	     33.05182193	     -1.56025549	     -7.49999987	     89.87825776	    -33.92646587	      6.64702988	     69.05733000	      1.20527778	     21.53213045	     11.30350016	     -7.49999987	    -30.73001166	     -1.52992520	      4.53444403	    105.18511584	    -17.42005284	     37.72309769	    121.35318336	    108.51203204	    112.54380346	    -21.60717199	     40.31135003	    118.03348261	    108.92652578
      6.68000000	    -32.90368631	     -4.87729867	      0.99293770	     -0.29329647	      0.69784440	     -0.58382550	     87.63757723	     -7.36804028	     -7.77709598	     84.55080214	      1.47568988	     32.65283127	     -1.72682053	     -7.49999987	     88.66103788	    -33.64445924	      5.96052209	     68.26883886	      1.19151601	     21.13269408	     10.67633747	     -7.49999987	    -30.54525234	     -1.26595934	      4.14004089	    104.14560122	    -16.97204726	     37.66993266	    121.15686479	    108.54553233	    111.18405758	    -22.24716024	     39.34159685	    118.68098893	    108.94451113
      6.69000000	    -32.64713615	     -4.88986488	      1.19150085	     -0.29216952	      0.70305576	     -0.58579588	     86.69346232	     -7.56992590	     -7.81028343	     83.64837776	      1.45993961	     32.40185516	     -1.73809536	     -7.49999987	     87.59595665	    -33.28804946	      5.49348514	     67.45683258	      1.17734383	     20.80565033	     10.49682134	     -7.49999987	    -30.20969067	     -1.05657216	      3.95876213	    102.83656613	    -17.16590789	     37.53027179	    121.41764291	    108.55763042	    109.96443272	    -22.37254813	     39.10184327	    118.96670055	    108.95840624
      6.70000000	    -32.54245030	     -4.87240709	      1.33877869	     -0.29083156	      0.70828704	     -0.58764088	     85.86158531	     -7.69359128	     -7.75106426	     82.66507081	      1.44277766	     32.07715356	     -1.77886846	     -7.49999987	     86.60693551	    -32.99021253	      4.90615312	     66.57859907	      1.16201577	     20.39491639	     10.17167903	     -7.49999987	    -29.55789974	     -1.15602802	      3.90808156	    100.88171116	    -17.76283905	     36.92292984	    122.04519644	    108.55271268	    108.54489339	    -21.90093916	     38.88684899	    118.92319507	    108.93165591
      6.71000000	    -32.35057906	     -4.87179722	      1.37831456	     -0.28938846	      0.71370222	     -0.58909783	     84.93669471	     -7.71272441	     -7.78641276	     81.65018797	      1.42506462	     31.71564285	     -1.82477303	     -7.49999987	     85.53629451	    -32.85280318	      4.33402122	     65.68979632	      1.14650323	     20.04874220	      9.91219296	     -7.49999987	    -29.01923246	     -1.29077093	      3.98129974	     98.99904317	    -18.31330390	     36.40650911	    122.67253724	    108.56126796	    107.21675257	    -21.51902376	     38.76219034	    118.85744481	    108.90046780
      6.72000000	    -32.03941247	     -4.90493706	      1.42702065	     -0.28795972	      0.71925974	     -0.59043621	     83.88564094	     -7.72014807	     -7.86430523	     80.64677460	      1.40755175	     31.36542109	     -1.81538685	     -7.49999987	     84.37306446	    -32.74750306	      3.79799288	     64.79635789	      1.13090979	     19.78400275	      9.81684268	     -7.49999987	    -28.68361787	     -1.20517914	      3.97582088	     97.39803075	    -18.44316709	     36.04835645	    123.02447058	    108.57122392	    105.85558437	    -21.56000843	     38.43759296	    119.10659798	    108.88861922
      6.73000000	    -31.68549315	     -5.01910790	      1.49910238	     -0.28649857	      0.72494923	     -0.59183836	     82.74518764	     -7.72512823	     -8.04927623	     79.62360830	      1.38969413	     31.10649383	     -1.74378360	     -7.49999987	     83.19081428	    -32.60898077	      3.41074703	     63.83116164	      1.11406394	     19.62169283	      9.81556453	     -7.49999987	    -28.37754017	     -0.99583427	      3.95120691	     95.87963288	    -18.51729407	     35.97950478	    123.28757297	    108.58704125	    104.60225149	    -21.74177405	     38.42372300	    119.33910744	    108.90549094
      6.74000000	    -31.31180198	     -4.99340158	      1.55766064	     -0.28487931	      0.73091204	     -0.59334547	     81.58566241	     -7.73786568	     -8.05688995	     78.52076163	      1.37044582	     30.69174673	     -1.78904272	     -7.49999987	     81.82689905	    -32.45605394	      2.76701433	     62.83647956	      1.09670346	     19.29381462	      9.70918363	     -7.49999987	    -28.07624727	     -0.96473825	      3.89546337	     93.89077205	    -18.44700906	     35.13430108	    123.60016244	    108.57096274	    102.96900389	    -21.68766311	     37.79084506	    119.66851949	    108.88946313
      6.75000000	    -30.96738914	     -4.94607881	      1.67046016	     -0.28335908	      0.73676728	     -0.59496466	     80.47476555	     -7.74777403	     -7.93917278	     77.44783157	      1.35171966	     30.19589127	     -1.96727457	     -7.49999987	     80.53624236	    -32.25626078	      2.05018272	     61.88003748	      1.08001040	     18.96036204	      9.45140875	     -7.49999987	    -27.67734413	     -1.01068901	      3.68676477	     91.98323043	    -18.58859798	     34.63284797	    123.90405869	    108.60337797	    101.47679658	    -21.59347970	     37.44751235	    119.74845477	    108.89485290
